<svg xmlns="http://www.w3.org/2000/svg" width="11.056" height="23.159" viewBox="0 0 11.056 23.159">
  <g id="svgexport-7" transform="translate(-32.377 -14.45)">
    <path id="Path_6" data-name="Path 6" d="M48.627,50.067A.629.629,0,0,1,48,49.439V33.227a.627.627,0,0,1,1.255,0V49.439A.629.629,0,0,1,48.627,50.067Z" transform="translate(-10.723 -12.457)" fill="#34347a"/>
    <circle id="Ellipse_4" data-name="Ellipse 4" cx="0.627" cy="0.627" r="0.627" transform="translate(37.277 14.45)" fill="#34347a"/>
    <circle id="Ellipse_5" data-name="Ellipse 5" cx="0.627" cy="0.627" r="0.627" transform="translate(37.277 17.295)" fill="#34347a"/>
    <path id="Path_7" data-name="Path 7" d="M37.9,76.428a.617.617,0,0,1-.4-.151l-4.9-4.165a.627.627,0,0,1,.812-.957l4.494,3.82,4.494-3.82a.627.627,0,0,1,.812.957l-4.9,4.165A.617.617,0,0,1,37.9,76.428Z" transform="translate(0 -38.818)" fill="#34347a"/>
  </g>
</svg>
