<svg xmlns="http://www.w3.org/2000/svg" width="21" height="40" viewBox="0 0 21 40">
  <g id="Group_9" data-name="Group 9" transform="translate(-672.05 -745.905)">
    <g id="Rectangle_4" data-name="Rectangle 4" transform="translate(672.05 745.905)" fill="none" stroke="#34347a" stroke-width="2">
      <rect width="21" height="40" rx="10.5" stroke="none"/>
      <rect x="1" y="1" width="19" height="38" rx="9.5" fill="none"/>
    </g>
    <g id="svgexport-7" transform="translate(644.673 739.455)">
      <path id="Path_6" data-name="Path 6" d="M48.627,50.067A.629.629,0,0,1,48,49.439V33.227a.627.627,0,0,1,1.255,0V49.439A.629.629,0,0,1,48.627,50.067Z" transform="translate(-10.723 -12.457)" fill="#34347a"/>
      <circle id="Ellipse_4" data-name="Ellipse 4" cx="0.627" cy="0.627" r="0.627" transform="translate(37.277 14.45)" fill="#34347a"/>
      <circle id="Ellipse_5" data-name="Ellipse 5" cx="0.627" cy="0.627" r="0.627" transform="translate(37.277 17.295)" fill="#34347a"/>
      <path id="Path_7" data-name="Path 7" d="M37.9,76.428a.617.617,0,0,1-.4-.151l-4.9-4.165a.627.627,0,0,1,.812-.957l4.494,3.82,4.494-3.82a.627.627,0,0,1,.812.957l-4.9,4.165A.617.617,0,0,1,37.9,76.428Z" transform="translate(0 -38.818)" fill="#34347a"/>
    </g>
  </g>
</svg>
